<svg width="25" height="15" viewBox="0 0 25 15" fill="none" xmlns="http://www.w3.org/2000/svg">
<path fill-rule="evenodd" clip-rule="evenodd" d="M21.986 10.5604C21.986 10.5604 23.9264 12.4768 24.4064 13.3636C24.4158 13.3764 24.4231 13.3905 24.428 13.4056C24.6236 13.7332 24.6716 13.99 24.5756 14.1796C24.4136 14.4928 23.8652 14.65 23.6792 14.6632H20.2496C20.0108 14.6632 19.514 14.6008 18.9092 14.1832C18.4472 13.8604 17.9876 13.3288 17.5424 12.8092C16.8776 12.0376 16.3028 11.368 15.7208 11.368C15.6473 11.3678 15.5743 11.38 15.5048 11.404C15.0644 11.5432 14.5052 12.1708 14.5052 13.8424C14.5052 14.3656 14.0924 14.6632 13.8032 14.6632H12.2324C11.6972 14.6632 8.91084 14.476 6.44004 11.8708C3.41244 8.68119 0.693243 2.28278 0.666843 2.22638C0.497643 1.81238 0.852843 1.58678 1.23684 1.58678H4.70004C5.16444 1.58678 5.31564 1.86758 5.42124 2.11958C5.54364 2.40878 5.99724 3.56558 6.74124 4.86518C7.94604 6.97958 8.68644 7.83998 9.27804 7.83998C9.38919 7.84031 9.49846 7.81134 9.59484 7.75598C10.3676 7.33118 10.2236 4.57118 10.1876 4.00238C10.1876 3.89198 10.1864 2.76998 9.79044 2.22758C9.50724 1.83878 9.02484 1.68758 8.73324 1.63238C8.81124 1.51958 8.97684 1.34678 9.18924 1.24478C9.71844 0.980783 10.6748 0.942383 11.624 0.942383H12.1508C13.1804 0.956783 13.4468 1.02278 13.8212 1.11758C14.5748 1.29758 14.5892 1.78598 14.5232 3.44918C14.504 3.92438 14.4836 4.45958 14.4836 5.08958C14.4836 5.22398 14.4776 5.37398 14.4776 5.52638C14.4548 6.37958 14.4248 7.34078 15.0272 7.73558C15.1054 7.78426 15.1956 7.81003 15.2876 7.80998C15.4964 7.80998 16.1216 7.80998 17.8172 4.89998C18.5612 3.61478 19.1372 2.09918 19.1768 1.98518C19.2104 1.92158 19.3112 1.74278 19.4336 1.67078C19.5207 1.62446 19.6182 1.60132 19.7168 1.60358H23.7908C24.2348 1.60358 24.536 1.67078 24.5948 1.83878C24.6932 2.11118 24.5756 2.94278 22.7156 5.45798C22.4024 5.87678 22.1276 6.23918 21.8864 6.55598C20.2004 8.76878 20.2004 8.88038 21.986 10.5604Z" fill="white"/>
</svg>
