<svg width="22" height="16" viewBox="0 0 22 16" fill="none" xmlns="http://www.w3.org/2000/svg">
<path d="M20.6811 2.74764C20.5616 2.30367 20.3276 1.89887 20.0025 1.57376C19.6774 1.24865 19.2726 1.01464 18.8286 0.895137C17.1936 0.452637 10.6236 0.452637 10.6236 0.452637C10.6236 0.452637 4.05361 0.452637 2.41861 0.895137C1.97464 1.01464 1.56985 1.24865 1.24474 1.57376C0.919629 1.89887 0.685614 2.30367 0.566111 2.74764C0.26082 4.41509 0.112671 6.1075 0.123611 7.80264C0.112671 9.49777 0.26082 11.1902 0.566111 12.8576C0.685614 13.3016 0.919629 13.7064 1.24474 14.0315C1.56985 14.3566 1.97464 14.5906 2.41861 14.7101C4.05361 15.1526 10.6236 15.1526 10.6236 15.1526C10.6236 15.1526 17.1936 15.1526 18.8286 14.7101C19.2726 14.5906 19.6774 14.3566 20.0025 14.0315C20.3276 13.7064 20.5616 13.3016 20.6811 12.8576C20.9864 11.1902 21.1346 9.49777 21.1236 7.80264C21.1346 6.1075 20.9864 4.41509 20.6811 2.74764ZM8.52361 10.9526V4.65264L13.9761 7.80264L8.52361 10.9526Z" fill="white"/>
</svg>
